{
    "asset" : {
        "generator" : "Khronos glTF Blender I/O v1.1.45",
        "version" : "2.0"
    },
    "scene" : 0,
    "scenes" : [
        {
            "name" : "Scene",
            "nodes" : [
                0,
                1,
                7
            ]
        }
    ],
    "nodes" : [
        {
            "name" : "Light",
            "rotation" : [
                0.16907575726509094,
                0.7558803558349609,
                -0.27217137813568115,
                0.570947527885437
            ],
            "translation" : [
                4.076245307922363,
                5.903861999511719,
                -1.0054539442062378
            ]
        },
        {
            "name" : "Camera",
            "rotation" : [
                0.483536034822464,
                0.33687159419059753,
                -0.20870360732078552,
                0.7804827094078064
            ],
            "translation" : [
                7.358891487121582,
                4.958309173583984,
                6.925790786743164
            ]
        },
        {
            "name" : "joint3",
            "rotation" : [
                0.2547166645526886,
                0.6596358418464661,
                -0.2547167241573334,
                0.6596357822418213
            ],
            "scale" : [
                1,
                0.9999997615814209,
                1
            ],
            "translation" : [
                64.73899841308594,
                -5.140655994415283,
                7.927112579345703
            ]
        },
        {
            "name" : "joint4",
            "rotation" : [
                0.21455256640911102,
                0.6737709045410156,
                -0.2145526111125946,
                0.6737708449363708
            ],
            "scale" : [
                0.9999999403953552,
                0.9999997615814209,
                0.9999999403953552
            ],
            "translation" : [
                -26.575307846069336,
                75.4442138671875,
                -14.587191581726074
            ]
        },
        {
            "children" : [
                2,
                3
            ],
            "name" : "joint2",
            "rotation" : [
                -2.3276562899354758e-08,
                -1.444997632660261e-08,
                -0.45439499616622925,
                0.8908002972602844
            ],
            "translation" : [
                72.68404388427734,
                -0.7346501350402832,
                -3.1370084343507187e-06
            ]
        },
        {
            "children" : [
                4
            ],
            "name" : "joint1",
            "rotation" : [
                -0.7060821056365967,
                -0.03805587813258171,
                0.7060819268226624,
                0.038056060671806335
            ],
            "scale" : [
                0.9999999403953552,
                0.9999998211860657,
                0.9999999403953552
            ],
            "translation" : [
                9.531537159546133e-08,
                -2.086162567138672e-07,
                4.023313522338867e-07
            ]
        },
        {
            "mesh" : 0,
            "name" : "R4YL_PROP_tree001",
            "skin" : 0
        },
        {
            "children" : [
                6,
                5
            ],
            "name" : "Armature",
            "rotation" : [
                0.7071068286895752,
                0,
                0,
                0.7071067094802856
            ],
            "scale" : [
                0.11400000005960464,
                0.11400000005960464,
                0.11400000005960464
            ],
            "translation" : [
                14.95503044128418,
                2.306063652038574,
                -19.780960083007812
            ]
        }
    ],
    "animations" : [
        {
            "channels" : [
                {
                    "sampler" : 0,
                    "target" : {
                        "node" : 5,
                        "path" : "translation"
                    }
                },
                {
                    "sampler" : 1,
                    "target" : {
                        "node" : 5,
                        "path" : "rotation"
                    }
                },
                {
                    "sampler" : 2,
                    "target" : {
                        "node" : 5,
                        "path" : "scale"
                    }
                },
                {
                    "sampler" : 3,
                    "target" : {
                        "node" : 4,
                        "path" : "translation"
                    }
                },
                {
                    "sampler" : 4,
                    "target" : {
                        "node" : 4,
                        "path" : "rotation"
                    }
                },
                {
                    "sampler" : 5,
                    "target" : {
                        "node" : 4,
                        "path" : "scale"
                    }
                },
                {
                    "sampler" : 6,
                    "target" : {
                        "node" : 2,
                        "path" : "translation"
                    }
                },
                {
                    "sampler" : 7,
                    "target" : {
                        "node" : 2,
                        "path" : "rotation"
                    }
                },
                {
                    "sampler" : 8,
                    "target" : {
                        "node" : 2,
                        "path" : "scale"
                    }
                },
                {
                    "sampler" : 9,
                    "target" : {
                        "node" : 3,
                        "path" : "translation"
                    }
                },
                {
                    "sampler" : 10,
                    "target" : {
                        "node" : 3,
                        "path" : "rotation"
                    }
                },
                {
                    "sampler" : 11,
                    "target" : {
                        "node" : 3,
                        "path" : "scale"
                    }
                }
            ],
            "name" : "Armature|Take 001|BaseLayer.002",
            "samplers" : [
                {
                    "input" : 13,
                    "interpolation" : "LINEAR",
                    "output" : 14
                },
                {
                    "input" : 13,
                    "interpolation" : "LINEAR",
                    "output" : 15
                },
                {
                    "input" : 13,
                    "interpolation" : "LINEAR",
                    "output" : 16
                },
                {
                    "input" : 13,
                    "interpolation" : "LINEAR",
                    "output" : 17
                },
                {
                    "input" : 13,
                    "interpolation" : "LINEAR",
                    "output" : 18
                },
                {
                    "input" : 13,
                    "interpolation" : "LINEAR",
                    "output" : 19
                },
                {
                    "input" : 13,
                    "interpolation" : "LINEAR",
                    "output" : 20
                },
                {
                    "input" : 13,
                    "interpolation" : "LINEAR",
                    "output" : 21
                },
                {
                    "input" : 13,
                    "interpolation" : "LINEAR",
                    "output" : 22
                },
                {
                    "input" : 13,
                    "interpolation" : "LINEAR",
                    "output" : 23
                },
                {
                    "input" : 13,
                    "interpolation" : "LINEAR",
                    "output" : 24
                },
                {
                    "input" : 13,
                    "interpolation" : "LINEAR",
                    "output" : 25
                }
            ]
        }
    ],
    "materials" : [
        {
            "doubleSided" : true,
            "emissiveFactor" : [
                0,
                0,
                0
            ],
            "name" : "Material #26",
            "pbrMetallicRoughness" : {
                "baseColorTexture" : {
                    "index" : 0,
                    "texCoord" : 0
                },
                "metallicFactor" : 1,
                "roughnessFactor" : 0.858578622341156
            }
        },
        {
            "doubleSided" : true,
            "emissiveFactor" : [
                0,
                0,
                0
            ],
            "name" : "Material #27",
            "pbrMetallicRoughness" : {
                "baseColorTexture" : {
                    "index" : 1,
                    "texCoord" : 0
                },
                "metallicFactor" : 1,
                "roughnessFactor" : 0.858578622341156
            }
        }
    ],
    "meshes" : [
        {
            "name" : "Mesh.004",
            "primitives" : [
                {
                    "attributes" : {
                        "POSITION" : 0,
                        "NORMAL" : 1,
                        "TEXCOORD_0" : 2,
                        "JOINTS_0" : 3,
                        "WEIGHTS_0" : 4
                    },
                    "indices" : 5,
                    "material" : 0
                },
                {
                    "attributes" : {
                        "POSITION" : 6,
                        "NORMAL" : 7,
                        "TEXCOORD_0" : 8,
                        "JOINTS_0" : 9,
                        "WEIGHTS_0" : 10
                    },
                    "indices" : 11,
                    "material" : 1
                }
            ]
        }
    ],
    "textures" : [
        {
            "source" : 0
        },
        {
            "source" : 1
        }
    ],
    "images" : [
        {
            "mimeType" : "image/png",
            "name" : "Map #2",
            "uri" : "Map%202.png"
        },
        {
            "mimeType" : "image/png",
            "name" : "Map #3-Map #3",
            "uri" : "Map%203-Map%203.png"
        }
    ],
    "skins" : [
        {
            "inverseBindMatrices" : 12,
            "joints" : [
                5,
                4,
                2,
                3
            ],
            "name" : "Armature"
        }
    ],
    "accessors" : [
        {
            "bufferView" : 0,
            "componentType" : 5126,
            "count" : 1085,
            "max" : [
                28.917160034179688,
                14.264041900634766,
                -8.107373237609863
            ],
            "min" : [
                16.128334045410156,
                1.4678698778152466,
                -18.29528045654297
            ],
            "type" : "VEC3"
        },
        {
            "bufferView" : 1,
            "componentType" : 5126,
            "count" : 1085,
            "type" : "VEC3"
        },
        {
            "bufferView" : 2,
            "componentType" : 5126,
            "count" : 1085,
            "type" : "VEC2"
        },
        {
            "bufferView" : 3,
            "componentType" : 5123,
            "count" : 1085,
            "type" : "VEC4"
        },
        {
            "bufferView" : 4,
            "componentType" : 5126,
            "count" : 1085,
            "type" : "VEC4"
        },
        {
            "bufferView" : 5,
            "componentType" : 5123,
            "count" : 4242,
            "type" : "SCALAR"
        },
        {
            "bufferView" : 6,
            "componentType" : 5126,
            "count" : 730,
            "max" : [
                31.815073013305664,
                15.669988632202148,
                -7.415746688842773
            ],
            "min" : [
                14.177544593811035,
                6.974536418914795,
                -19.951004028320312
            ],
            "type" : "VEC3"
        },
        {
            "bufferView" : 7,
            "componentType" : 5126,
            "count" : 730,
            "type" : "VEC3"
        },
        {
            "bufferView" : 8,
            "componentType" : 5126,
            "count" : 730,
            "type" : "VEC2"
        },
        {
            "bufferView" : 9,
            "componentType" : 5123,
            "count" : 730,
            "type" : "VEC4"
        },
        {
            "bufferView" : 10,
            "componentType" : 5126,
            "count" : 730,
            "type" : "VEC4"
        },
        {
            "bufferView" : 11,
            "componentType" : 5123,
            "count" : 2730,
            "type" : "SCALAR"
        },
        {
            "bufferView" : 12,
            "componentType" : 5126,
            "count" : 4,
            "type" : "MAT4"
        },
        {
            "bufferView" : 13,
            "componentType" : 5126,
            "count" : 200,
            "max" : [
                8.375
            ],
            "min" : [
                0.08333333333333333
            ],
            "type" : "SCALAR"
        },
        {
            "bufferView" : 14,
            "componentType" : 5126,
            "count" : 200,
            "type" : "VEC3"
        },
        {
            "bufferView" : 15,
            "componentType" : 5126,
            "count" : 200,
            "type" : "VEC4"
        },
        {
            "bufferView" : 16,
            "componentType" : 5126,
            "count" : 200,
            "type" : "VEC3"
        },
        {
            "bufferView" : 17,
            "componentType" : 5126,
            "count" : 200,
            "type" : "VEC3"
        },
        {
            "bufferView" : 18,
            "componentType" : 5126,
            "count" : 200,
            "type" : "VEC4"
        },
        {
            "bufferView" : 19,
            "componentType" : 5126,
            "count" : 200,
            "type" : "VEC3"
        },
        {
            "bufferView" : 20,
            "componentType" : 5126,
            "count" : 200,
            "type" : "VEC3"
        },
        {
            "bufferView" : 21,
            "componentType" : 5126,
            "count" : 200,
            "type" : "VEC4"
        },
        {
            "bufferView" : 22,
            "componentType" : 5126,
            "count" : 200,
            "type" : "VEC3"
        },
        {
            "bufferView" : 23,
            "componentType" : 5126,
            "count" : 200,
            "type" : "VEC3"
        },
        {
            "bufferView" : 24,
            "componentType" : 5126,
            "count" : 200,
            "type" : "VEC4"
        },
        {
            "bufferView" : 25,
            "componentType" : 5126,
            "count" : 200,
            "type" : "VEC3"
        }
    ],
    "bufferViews" : [
        {
            "buffer" : 0,
            "byteLength" : 13020,
            "byteOffset" : 0
        },
        {
            "buffer" : 0,
            "byteLength" : 13020,
            "byteOffset" : 13020
        },
        {
            "buffer" : 0,
            "byteLength" : 8680,
            "byteOffset" : 26040
        },
        {
            "buffer" : 0,
            "byteLength" : 8680,
            "byteOffset" : 34720
        },
        {
            "buffer" : 0,
            "byteLength" : 17360,
            "byteOffset" : 43400
        },
        {
            "buffer" : 0,
            "byteLength" : 8484,
            "byteOffset" : 60760
        },
        {
            "buffer" : 0,
            "byteLength" : 8760,
            "byteOffset" : 69244
        },
        {
            "buffer" : 0,
            "byteLength" : 8760,
            "byteOffset" : 78004
        },
        {
            "buffer" : 0,
            "byteLength" : 5840,
            "byteOffset" : 86764
        },
        {
            "buffer" : 0,
            "byteLength" : 5840,
            "byteOffset" : 92604
        },
        {
            "buffer" : 0,
            "byteLength" : 11680,
            "byteOffset" : 98444
        },
        {
            "buffer" : 0,
            "byteLength" : 5460,
            "byteOffset" : 110124
        },
        {
            "buffer" : 0,
            "byteLength" : 256,
            "byteOffset" : 115584
        },
        {
            "buffer" : 0,
            "byteLength" : 800,
            "byteOffset" : 115840
        },
        {
            "buffer" : 0,
            "byteLength" : 2400,
            "byteOffset" : 116640
        },
        {
            "buffer" : 0,
            "byteLength" : 3200,
            "byteOffset" : 119040
        },
        {
            "buffer" : 0,
            "byteLength" : 2400,
            "byteOffset" : 122240
        },
        {
            "buffer" : 0,
            "byteLength" : 2400,
            "byteOffset" : 124640
        },
        {
            "buffer" : 0,
            "byteLength" : 3200,
            "byteOffset" : 127040
        },
        {
            "buffer" : 0,
            "byteLength" : 2400,
            "byteOffset" : 130240
        },
        {
            "buffer" : 0,
            "byteLength" : 2400,
            "byteOffset" : 132640
        },
        {
            "buffer" : 0,
            "byteLength" : 3200,
            "byteOffset" : 135040
        },
        {
            "buffer" : 0,
            "byteLength" : 2400,
            "byteOffset" : 138240
        },
        {
            "buffer" : 0,
            "byteLength" : 2400,
            "byteOffset" : 140640
        },
        {
            "buffer" : 0,
            "byteLength" : 3200,
            "byteOffset" : 143040
        },
        {
            "buffer" : 0,
            "byteLength" : 2400,
            "byteOffset" : 146240
        }
    ],
    "buffers" : [
        {
            "byteLength" : 148640,
            "uri" : "tree.bin"
        }
    ]
}
